<svg width="53" height="59" viewBox="0 0 53 59" fill="none" xmlns="http://www.w3.org/2000/svg">
<path d="M48.5839 51.1138H53C53 50.8251 52.9731 50.5388 52.9168 50.2575C52.8605 49.9737 52.7749 49.6997 52.6648 49.4305C52.5547 49.1639 52.4177 48.9119 52.2562 48.6721C52.0948 48.4299 51.9113 48.2097 51.7082 48.0042C51.5027 47.8011 51.2801 47.6176 51.0379 47.4586C50.7981 47.2971 50.5412 47.1626 50.2745 47.05C50.0054 46.9399 49.7314 46.8567 49.4451 46.8005C49.1613 46.7442 48.8751 46.7173 48.5839 46.7173H4.41606C4.12736 46.7173 3.83867 46.7442 3.55486 46.8005C3.27106 46.8567 2.9946 46.9399 2.72548 47.05C2.4588 47.1626 2.20436 47.2971 1.96215 47.4586C1.72238 47.6176 1.49975 47.8011 1.29423 48.0042C1.08872 48.2097 0.90523 48.4299 0.743757 48.6721C0.582283 48.9119 0.447722 49.1639 0.33518 49.4305C0.225084 49.6997 0.1419 49.9737 0.0856299 50.2575C0.0293587 50.5388 0 50.8251 0 51.1138H4.41606C4.61178 51.1138 4.80017 51.1529 4.98121 51.2263C5.15981 51.2997 5.31884 51.4074 5.45829 51.5444C5.5953 51.6814 5.70295 51.8404 5.77635 52.019C5.85219 52.2 5.88889 52.386 5.88889 52.5817C5.88889 52.775 5.85219 52.9634 5.77635 53.142C5.70295 53.3206 5.5953 53.4796 5.45829 53.6166C5.31884 53.7561 5.15981 53.8613 4.98121 53.9347C4.80017 54.0105 4.61178 54.0472 4.41606 54.0472H0V56.9806C0 57.1739 0.0366984 57.3623 0.112542 57.5409C0.185939 57.7195 0.293588 57.8785 0.430596 58.0155C0.57005 58.155 0.729077 58.2602 0.910123 58.3336C1.08872 58.4094 1.27711 58.4461 1.47283 58.4461H51.5296C51.7229 58.4461 51.9113 58.4094 52.0923 58.3336C52.2734 58.2602 52.4324 58.155 52.5694 58.0155C52.7089 57.8785 52.8141 57.7195 52.8899 57.5409C52.9633 57.3623 53 57.1739 53 56.9806V54.0472H48.5839C48.3882 54.0472 48.2023 54.0105 48.0212 53.9347C47.8402 53.8613 47.6812 53.7561 47.5442 53.6166C47.4047 53.4796 47.2995 53.3206 47.2237 53.142C47.1503 52.9634 47.1111 52.775 47.1111 52.5817C47.1111 52.386 47.1503 52.2 47.2237 52.019C47.2995 51.8404 47.4047 51.6814 47.5442 51.5444C47.6812 51.4074 47.8402 51.2997 48.0212 51.2263C48.2023 51.1529 48.3882 51.1138 48.5839 51.1138Z" fill="#EE3EC9"/>
<path d="M43.8914 20.8594C44.415 21.1383 44.8872 21.4881 45.3031 21.9114C45.7215 22.3322 46.0664 22.8068 46.338 23.3329C46.6096 23.8589 46.7955 24.4142 46.8983 24.9965C47.001 25.5813 47.0132 26.166 46.9374 26.7532C46.8591 27.3403 46.6952 27.903 46.4481 28.4413C46.1985 28.9771 45.8731 29.4664 45.4743 29.9043C45.0756 30.3447 44.6205 30.7142 44.1092 31.0151C43.5954 31.316 43.0498 31.5338 42.4724 31.6683C41.4277 34.4941 38.9127 39.5609 33.907 43.5855H46.0713C47.1551 42.3892 48.1191 41.1023 48.9656 39.7298C49.8097 38.3572 50.5241 36.9187 51.1039 35.414C51.6862 33.9118 52.1241 32.368 52.4226 30.7827C52.7186 29.1997 52.8679 27.6021 52.8703 25.9923C52.8703 13.0083 43.4094 2.21164 30.9882 0.0268555C38.712 4.43802 43.1941 12.7294 43.8914 20.8594Z" fill="#EE3EC9"/>
<path d="M28.7619 43.5856C35.0128 40.2411 38.1175 34.8416 39.4827 31.5632C39.1524 31.4629 38.8344 31.3356 38.5261 31.1791C38.2178 31.0249 37.9267 30.8439 37.6527 30.6359C37.3762 30.428 37.1218 30.2004 36.8869 29.9484C36.652 29.6964 36.4416 29.4249 36.2532 29.1362C36.0673 28.8475 35.9083 28.5441 35.7737 28.2285C35.6416 27.9104 35.5364 27.5851 35.4606 27.2499C35.3872 26.9147 35.3407 26.5746 35.326 26.2321C35.3113 25.8871 35.326 25.5471 35.3725 25.2045C35.4165 24.8645 35.4924 24.5317 35.5976 24.2039C35.7003 23.8761 35.8349 23.5604 35.9939 23.2571C36.1554 22.9513 36.3413 22.665 36.5542 22.3934C36.7646 22.1219 36.9995 21.8723 37.2563 21.6399C37.5108 21.4099 37.7848 21.2044 38.0784 21.0234C38.372 20.8399 38.6778 20.6857 38.9983 20.5585C39.3188 20.4288 39.6466 20.331 39.9843 20.26C40.3219 20.1891 40.6644 20.1499 41.0094 20.1401C39.8179 10.8628 33.1388 1.65143 22.0558 0C9.5563 2.11873 0 12.9423 0 25.9923C0.00244641 27.6022 0.151688 29.1998 0.450169 30.7827C0.746203 32.3681 1.18659 33.9119 1.76642 35.4141C2.34871 36.9187 3.06066 38.3573 3.90717 39.7298C4.75368 41.1023 5.71763 42.3892 6.79901 43.5856H28.7619ZM7.46937 18.0875C7.99049 16.852 8.6266 15.6776 9.3777 14.5669C10.1288 13.4537 10.9826 12.4237 11.9344 11.4768C12.8861 10.53 13.921 9.68352 15.0391 8.93487C16.1571 8.18866 17.3364 7.555 18.5768 7.03633C18.7603 6.9507 18.9511 6.90421 19.1542 6.89687C19.3548 6.88709 19.5505 6.91889 19.7389 6.99229C19.9273 7.06324 20.0937 7.17089 20.238 7.31034C20.3824 7.45225 20.4949 7.61372 20.5707 7.79966C20.649 7.9856 20.6857 8.17888 20.6833 8.37949C20.6808 8.58256 20.6392 8.77339 20.5561 8.95689C20.4729 9.14282 20.3579 9.30185 20.2087 9.43886C20.0619 9.57342 19.893 9.67618 19.7022 9.74223C18.638 10.1875 17.63 10.7331 16.6734 11.3716C15.7168 12.0126 14.8311 12.7393 14.0164 13.554C13.2017 14.3662 12.4726 15.2495 11.8316 16.2012C11.1882 17.1553 10.645 18.1609 10.1997 19.2202C10.0823 19.4918 9.89882 19.712 9.65171 19.8759C9.40461 20.0398 9.13059 20.123 8.83456 20.1255C8.63883 20.1255 8.45045 20.0863 8.27185 20.0056C8.0908 19.9322 7.93177 19.8245 7.79477 19.6875C7.65531 19.5505 7.55011 19.3915 7.47427 19.2105C7.39842 19.0319 7.36172 18.8435 7.35928 18.6502C7.35928 18.4545 7.39598 18.2685 7.46937 18.0875Z" fill="#EE3EC9"/>
</svg>
