<svg width="30" height="25" viewBox="0 0 30 25" fill="none" xmlns="http://www.w3.org/2000/svg">
<path d="M29.6111 3.06744C28.5229 3.54476 27.3635 3.86114 26.1546 4.01476C27.3982 3.27227 28.3474 2.1055 28.7936 0.699155C27.6341 1.39044 26.354 1.87873 24.9897 2.15122C23.8888 0.978961 22.3196 0.25293 20.6079 0.25293C17.2868 0.25293 14.6131 2.94857 14.6131 6.2532C14.6131 6.72869 14.6533 7.18589 14.7521 7.62114C9.76498 7.37791 5.35209 4.98768 2.38762 1.34655C1.87007 2.24449 1.56649 3.27227 1.56649 4.37869C1.56649 6.4562 2.63633 8.2978 4.23104 9.36398C3.26727 9.34569 2.32178 9.06589 1.52077 8.62515C1.52077 8.64344 1.52077 8.66721 1.52077 8.69099C1.52077 11.6061 3.60011 14.0274 6.32684 14.5852C5.83855 14.7187 5.30637 14.7827 4.75408 14.7827C4.37003 14.7827 3.98233 14.7608 3.6184 14.6803C4.39563 17.0559 6.60116 18.8024 9.22365 18.8591C7.18272 20.4556 4.59132 21.4176 1.78595 21.4176C1.294 21.4176 0.822171 21.3956 0.350342 21.3353C3.00758 23.0489 6.15676 24.0273 9.55284 24.0273C20.5914 24.0273 26.6265 14.8833 26.6265 6.95729C26.6265 6.69211 26.6173 6.43608 26.6045 6.18188C27.7951 5.33698 28.7954 4.28176 29.6111 3.06744Z" fill="white"/>
</svg>
